<?xml version="1.0" encoding="UTF-8" standalone="no"?><svg xmlns="http://www.w3.org/2000/svg" xmlns:xlink="http://www.w3.org/1999/xlink" clip-rule="evenodd" stroke-miterlimit="10" viewBox="0 0 1024 768"><desc>SVG generated by Keynote</desc><defs></defs><g transform="matrix(1.00, 0.00, -0.00, -1.00, 0.0, 768.0)"><path d="M 0.0 768.0 L 1024.0 768.0 L 1024.0 0.0 L 0.0 0.0 Z M 0.0 768.0 " fill="#FEFFFF"></path><path d="M 131.5 746.5 L 892.5 746.5 L 892.5 661.5 L 131.5 661.5 Z M 131.2 747.0 " fill="#D5C189"></path><path d="M 0.3 0.5 L 761.3 0.5 L 761.3 85.5 L 0.3 85.5 Z M 0.0 0.0 " fill="none" stroke="#7F404B" stroke-width="5.00" transform="matrix(1.00, 0.00, 0.00, -1.00, 131.2, 747.0)"></path><g><clipPath id="clip0x7ffdce5685f0"><path d="M 123.6 654.4 L 900.4 654.4 L 900.4 753.6 L 123.6 753.6 Z M 123.6 654.4 "></path></clipPath><g clip-path="url(#clip0x7ffdce5685f0)"><text xml:space="preserve" font-family="Helvetica-Light,Helvetica" font-size="58.4" fill="#000000" transform="matrix(1.00, 0.00, -0.00, -1.00, 304.2, 682.4)">T</text><text xml:space="preserve" font-family="Helvetica-Light,Helvetica" font-size="58.4" fill="#000000" transform="matrix(1.00, 0.00, -0.00, -1.00, 330.2, 682.4)">e</text><text xml:space="preserve" font-family="Helvetica-Light,Helvetica" font-size="58.4" fill="#000000" transform="matrix(1.00, 0.00, -0.00, -1.00, 362.7, 682.4)">a</text><text xml:space="preserve" font-family="Helvetica-Light,Helvetica" font-size="58.4" fill="#000000" transform="matrix(1.00, 0.00, -0.00, -1.00, 395.2, 682.4)">c</text><text xml:space="preserve" font-family="Helvetica-Light,Helvetica" font-size="58.4" fill="#000000" transform="matrix(1.00, 0.00, -0.00, -1.00, 427.6, 682.4)">h</text><text xml:space="preserve" font-family="Helvetica-Light,Helvetica" font-size="58.4" fill="#000000" transform="matrix(1.00, 0.00, -0.00, -1.00, 460.1, 682.4)">i</text><text xml:space="preserve" font-family="Helvetica-Light,Helvetica" font-size="58.4" fill="#000000" transform="matrix(1.00, 0.00, -0.00, -1.00, 473.1, 682.4)">n</text><text xml:space="preserve" font-family="Helvetica-Light,Helvetica" font-size="58.4" fill="#000000" transform="matrix(1.00, 0.00, -0.00, -1.00, 505.5, 682.4)">g</text><text xml:space="preserve" font-family="Helvetica-Light,Helvetica" font-size="58.4" fill="#000000" transform="matrix(1.00, 0.00, -0.00, -1.00, 541.2, 682.4)"> </text><text xml:space="preserve" font-family="Helvetica-Light,Helvetica" font-size="58.4" fill="#000000" transform="matrix(1.00, 0.00, -0.00, -1.00, 557.5, 682.4)">P</text><text xml:space="preserve" font-family="Helvetica-Light,Helvetica" font-size="58.4" fill="#000000" transform="matrix(1.00, 0.00, -0.00, -1.00, 593.1, 682.4)">h</text><text xml:space="preserve" font-family="Helvetica-Light,Helvetica" font-size="58.4" fill="#000000" transform="matrix(1.00, 0.00, -0.00, -1.00, 625.6, 682.4)">a</text><text xml:space="preserve" font-family="Helvetica-Light,Helvetica" font-size="58.4" fill="#000000" transform="matrix(1.00, 0.00, -0.00, -1.00, 658.1, 682.4)">s</text><text xml:space="preserve" font-family="Helvetica-Light,Helvetica" font-size="58.4" fill="#000000" transform="matrix(1.00, 0.00, -0.00, -1.00, 687.3, 682.4)">e</text></g></g><image xlink:href="../../D8AF47D4-DD2B-4E79-B880-271EE9763E2F/assets/9F27EC78D3645ABBD7A25AF0CC6F3B35.png" width="684.00" height="363.00" transform="matrix(1.02, 0.00, -0.00, -1.02, 140.7, 591.2)"></image><image xlink:href="../../D8AF47D4-DD2B-4E79-B880-271EE9763E2F/assets/2358AEA43BFAADA741D83E186D822C81.png" width="349.00" height="30.00" transform="matrix(1.03, 0.00, -0.00, -1.03, 332.7, 182.0)"></image><image xlink:href="../../D8AF47D4-DD2B-4E79-B880-271EE9763E2F/assets/2C3EA8E46EC9DC3933901E413E1BF19C.png" width="322.00" height="30.00" transform="matrix(1.06, 0.00, -0.00, -1.06, 331.2, 138.6)"></image></g></svg>