<?xml version="1.0" encoding="UTF-8" standalone="no"?><svg xmlns="http://www.w3.org/2000/svg" xmlns:xlink="http://www.w3.org/1999/xlink" clip-rule="evenodd" stroke-miterlimit="10" viewBox="0 0 1024 768"><desc>SVG generated by Keynote</desc><defs></defs><g transform="matrix(1.00, 0.00, -0.00, -1.00, 0.0, 768.0)"><path d="M 0.0 768.0 L 1024.0 768.0 L 1024.0 0.0 L 0.0 0.0 Z M 0.0 768.0 " fill="#FEFFFF"></path><text xml:space="preserve" font-family="Helvetica-Light,Helvetica" font-size="36.0" fill="#000000" transform="matrix(1.00, 0.00, -0.00, -1.00, 293.0, 416.3)">m</text><text xml:space="preserve" font-family="Helvetica-Light,Helvetica" font-size="36.0" fill="#000000" transform="matrix(1.00, 0.00, -0.00, -1.00, 323.0, 416.3)">a</text><text xml:space="preserve" font-family="Helvetica-Light,Helvetica" font-size="36.0" fill="#000000" transform="matrix(1.00, 0.00, -0.00, -1.00, 343.0, 416.3)">y</text><text xml:space="preserve" font-family="Helvetica-Light,Helvetica" font-size="36.0" fill="#000000" transform="matrix(1.00, 0.00, -0.00, -1.00, 361.0, 416.3)">b</text><text xml:space="preserve" font-family="Helvetica-Light,Helvetica" font-size="36.0" fill="#000000" transform="matrix(1.00, 0.00, -0.00, -1.00, 383.0, 416.3)">e</text><text xml:space="preserve" font-family="Helvetica-Light,Helvetica" font-size="36.0" fill="#000000" transform="matrix(1.00, 0.00, -0.00, -1.00, 403.0, 416.3)"> </text><text xml:space="preserve" font-family="Helvetica-Light,Helvetica" font-size="36.0" fill="#000000" transform="matrix(1.00, 0.00, -0.00, -1.00, 413.0, 416.3)">e</text><text xml:space="preserve" font-family="Helvetica-Light,Helvetica" font-size="36.0" fill="#000000" transform="matrix(1.00, 0.00, -0.00, -1.00, 433.0, 416.3)">l</text><text xml:space="preserve" font-family="Helvetica-Light,Helvetica" font-size="36.0" fill="#000000" transform="matrix(1.00, 0.00, -0.00, -1.00, 441.0, 416.3)">a</text><text xml:space="preserve" font-family="Helvetica-Light,Helvetica" font-size="36.0" fill="#000000" transform="matrix(1.00, 0.00, -0.00, -1.00, 461.0, 416.3)">b</text><text xml:space="preserve" font-family="Helvetica-Light,Helvetica" font-size="36.0" fill="#000000" transform="matrix(1.00, 0.00, -0.00, -1.00, 483.0, 416.3)">o</text><text xml:space="preserve" font-family="Helvetica-Light,Helvetica" font-size="36.0" fill="#000000" transform="matrix(1.00, 0.00, -0.00, -1.00, 503.0, 416.3)">r</text><text xml:space="preserve" font-family="Helvetica-Light,Helvetica" font-size="36.0" fill="#000000" transform="matrix(1.00, 0.00, -0.00, -1.00, 515.0, 416.3)">a</text><text xml:space="preserve" font-family="Helvetica-Light,Helvetica" font-size="36.0" fill="#000000" transform="matrix(1.00, 0.00, -0.00, -1.00, 535.0, 416.3)">t</text><text xml:space="preserve" font-family="Helvetica-Light,Helvetica" font-size="36.0" fill="#000000" transform="matrix(1.00, 0.00, -0.00, -1.00, 545.0, 416.3)">e</text><text xml:space="preserve" font-family="Helvetica-Light,Helvetica" font-size="36.0" fill="#000000" transform="matrix(1.00, 0.00, -0.00, -1.00, 565.1, 416.3)"> </text><text xml:space="preserve" font-family="Helvetica-Light,Helvetica" font-size="36.0" fill="#000000" transform="matrix(1.00, 0.00, -0.00, -1.00, 575.1, 416.3)">o</text><text xml:space="preserve" font-family="Helvetica-Light,Helvetica" font-size="36.0" fill="#000000" transform="matrix(1.00, 0.00, -0.00, -1.00, 595.1, 416.3)">n</text><text xml:space="preserve" font-family="Helvetica-Light,Helvetica" font-size="36.0" fill="#000000" transform="matrix(1.00, 0.00, -0.00, -1.00, 615.1, 416.3)"> </text><text xml:space="preserve" font-family="Helvetica-Light,Helvetica" font-size="36.0" fill="#000000" transform="matrix(1.00, 0.00, -0.00, -1.00, 625.1, 416.3)">e</text><text xml:space="preserve" font-family="Helvetica-Light,Helvetica" font-size="36.0" fill="#000000" transform="matrix(1.00, 0.00, -0.00, -1.00, 645.1, 416.3)">x</text><text xml:space="preserve" font-family="Helvetica-Light,Helvetica" font-size="36.0" fill="#000000" transform="matrix(1.00, 0.00, -0.00, -1.00, 663.1, 416.3)">a</text><text xml:space="preserve" font-family="Helvetica-Light,Helvetica" font-size="36.0" fill="#000000" transform="matrix(1.00, 0.00, -0.00, -1.00, 683.1, 416.3)">m</text><text xml:space="preserve" font-family="Helvetica-Light,Helvetica" font-size="36.0" fill="#000000" transform="matrix(1.00, 0.00, -0.00, -1.00, 713.1, 416.3)">p</text><text xml:space="preserve" font-family="Helvetica-Light,Helvetica" font-size="36.0" fill="#000000" transform="matrix(1.00, 0.00, -0.00, -1.00, 735.1, 416.3)">l</text><text xml:space="preserve" font-family="Helvetica-Light,Helvetica" font-size="36.0" fill="#000000" transform="matrix(1.00, 0.00, -0.00, -1.00, 743.1, 416.3)">e</text><text xml:space="preserve" font-family="Helvetica-Light,Helvetica" font-size="36.0" fill="#000000" transform="matrix(1.00, 0.00, -0.00, -1.00, 763.1, 416.3)">s</text><text xml:space="preserve" font-family="Helvetica-Light,Helvetica" font-size="36.0" fill="#000000" transform="matrix(1.00, 0.00, -0.00, -1.00, 781.1, 416.3)"> </text><text xml:space="preserve" font-family="Helvetica-Light,Helvetica" font-size="36.0" fill="#000000" transform="matrix(1.00, 0.00, -0.00, -1.00, 293.0, 373.3)">m</text><text xml:space="preserve" font-family="Helvetica-Light,Helvetica" font-size="36.0" fill="#000000" transform="matrix(1.00, 0.00, -0.00, -1.00, 323.0, 373.3)">e</text><text xml:space="preserve" font-family="Helvetica-Light,Helvetica" font-size="36.0" fill="#000000" transform="matrix(1.00, 0.00, -0.00, -1.00, 343.0, 373.3)">n</text><text xml:space="preserve" font-family="Helvetica-Light,Helvetica" font-size="36.0" fill="#000000" transform="matrix(1.00, 0.00, -0.00, -1.00, 363.0, 373.3)">t</text><text xml:space="preserve" font-family="Helvetica-Light,Helvetica" font-size="36.0" fill="#000000" transform="matrix(1.00, 0.00, -0.00, -1.00, 373.0, 373.3)">i</text><text xml:space="preserve" font-family="Helvetica-Light,Helvetica" font-size="36.0" fill="#000000" transform="matrix(1.00, 0.00, -0.00, -1.00, 381.0, 373.3)">o</text><text xml:space="preserve" font-family="Helvetica-Light,Helvetica" font-size="36.0" fill="#000000" transform="matrix(1.00, 0.00, -0.00, -1.00, 401.0, 373.3)">n</text><text xml:space="preserve" font-family="Helvetica-Light,Helvetica" font-size="36.0" fill="#000000" transform="matrix(1.00, 0.00, -0.00, -1.00, 421.0, 373.3)">e</text><text xml:space="preserve" font-family="Helvetica-Light,Helvetica" font-size="36.0" fill="#000000" transform="matrix(1.00, 0.00, -0.00, -1.00, 441.0, 373.3)">d</text><text xml:space="preserve" font-family="Helvetica-Light,Helvetica" font-size="36.0" fill="#000000" transform="matrix(1.00, 0.00, -0.00, -1.00, 463.0, 373.3)"> </text><text xml:space="preserve" font-family="Helvetica-Light,Helvetica" font-size="36.0" fill="#000000" transform="matrix(1.00, 0.00, -0.00, -1.00, 473.0, 373.3)">i</text><text xml:space="preserve" font-family="Helvetica-Light,Helvetica" font-size="36.0" fill="#000000" transform="matrix(1.00, 0.00, -0.00, -1.00, 481.0, 373.3)">n</text><text xml:space="preserve" font-family="Helvetica-Light,Helvetica" font-size="36.0" fill="#000000" transform="matrix(1.00, 0.00, -0.00, -1.00, 501.0, 373.3)"> </text><text xml:space="preserve" font-family="Helvetica-Light,Helvetica" font-size="36.0" fill="#000000" transform="matrix(1.00, 0.00, -0.00, -1.00, 511.1, 373.3)">l</text><text xml:space="preserve" font-family="Helvetica-Light,Helvetica" font-size="36.0" fill="#000000" transform="matrix(1.00, 0.00, -0.00, -1.00, 519.0, 373.3)">a</text><text xml:space="preserve" font-family="Helvetica-Light,Helvetica" font-size="36.0" fill="#000000" transform="matrix(1.00, 0.00, -0.00, -1.00, 539.1, 373.3)">s</text><text xml:space="preserve" font-family="Helvetica-Light,Helvetica" font-size="36.0" fill="#000000" transform="matrix(1.00, 0.00, -0.00, -1.00, 557.1, 373.3)">t</text><text xml:space="preserve" font-family="Helvetica-Light,Helvetica" font-size="36.0" fill="#000000" transform="matrix(1.00, 0.00, -0.00, -1.00, 567.1, 373.3)"> </text><text xml:space="preserve" font-family="Helvetica-Light,Helvetica" font-size="36.0" fill="#000000" transform="matrix(1.00, 0.00, -0.00, -1.00, 577.1, 373.3)">s</text><text xml:space="preserve" font-family="Helvetica-Light,Helvetica" font-size="36.0" fill="#000000" transform="matrix(1.00, 0.00, -0.00, -1.00, 595.1, 373.3)">l</text><text xml:space="preserve" font-family="Helvetica-Light,Helvetica" font-size="36.0" fill="#000000" transform="matrix(1.00, 0.00, -0.00, -1.00, 603.1, 373.3)">i</text><text xml:space="preserve" font-family="Helvetica-Light,Helvetica" font-size="36.0" fill="#000000" transform="matrix(1.00, 0.00, -0.00, -1.00, 611.1, 373.3)">d</text><text xml:space="preserve" font-family="Helvetica-Light,Helvetica" font-size="36.0" fill="#000000" transform="matrix(1.00, 0.00, -0.00, -1.00, 633.1, 373.3)">e</text><text xml:space="preserve" font-family="Helvetica-Light,Helvetica" font-size="36.0" fill="#000000" transform="matrix(1.00, 0.00, -0.00, -1.00, 653.1, 373.3)">?</text><path d="M 88.5 718.5 L 921.5 718.5 L 921.5 618.5 L 88.5 618.5 Z M 88.6 718.5 " fill="#D5C189"></path><path d="M -0.1 -0.0 L 832.9 -0.0 L 832.9 100.0 L -0.1 100.0 Z M 0.0 0.0 " fill="none" stroke="#7F404B" stroke-width="5.00" transform="matrix(1.00, 0.00, 0.00, -1.00, 88.6, 718.5)"></path><g><clipPath id="clip0x7ffdceb12530"><path d="M 81.9 621.1 L 928.4 621.1 L 928.4 715.5 L 81.9 715.5 Z M 81.9 621.1 "></path></clipPath><g clip-path="url(#clip0x7ffdceb12530)"><text xml:space="preserve" font-family="Helvetica-Light,Helvetica" font-size="55.0" fill="#000000" transform="matrix(1.00, 0.00, -0.00, -1.00, 131.8, 648.1)">(</text><text xml:space="preserve" font-family="Helvetica-Light,Helvetica" font-size="55.0" fill="#000000" transform="matrix(1.00, 0.00, -0.00, -1.00, 150.1, 648.1)">W</text><text xml:space="preserve" font-family="Helvetica-Light,Helvetica" font-size="55.0" fill="#000000" transform="matrix(1.00, 0.00, -0.00, -1.00, 198.0, 648.1)">e</text><text xml:space="preserve" font-family="Helvetica-Light,Helvetica" font-size="55.0" fill="#000000" transform="matrix(1.00, 0.00, -0.00, -1.00, 228.6, 648.1)">i</text><text xml:space="preserve" font-family="Helvetica-Light,Helvetica" font-size="55.0" fill="#000000" transform="matrix(1.00, 0.00, -0.00, -1.00, 240.8, 648.1)">g</text><text xml:space="preserve" font-family="Helvetica-Light,Helvetica" font-size="55.0" fill="#000000" transform="matrix(1.00, 0.00, -0.00, -1.00, 274.4, 648.1)">h</text><text xml:space="preserve" font-family="Helvetica-Light,Helvetica" font-size="55.0" fill="#000000" transform="matrix(1.00, 0.00, -0.00, -1.00, 305.0, 648.1)">t</text><text xml:space="preserve" font-family="Helvetica-Light,Helvetica" font-size="55.0" fill="#000000" transform="matrix(1.00, 0.00, -0.00, -1.00, 320.3, 648.1)">e</text><text xml:space="preserve" font-family="Helvetica-Light,Helvetica" font-size="55.0" fill="#000000" transform="matrix(1.00, 0.00, -0.00, -1.00, 350.8, 648.1)">d</text><text xml:space="preserve" font-family="Helvetica-Light,Helvetica" font-size="55.0" fill="#000000" transform="matrix(1.00, 0.00, -0.00, -1.00, 384.5, 648.1)">)</text><text xml:space="preserve" font-family="Helvetica-Light,Helvetica" font-size="55.0" fill="#000000" transform="matrix(1.00, 0.00, -0.00, -1.00, 402.8, 648.1)"> </text><text xml:space="preserve" font-family="Helvetica-Light,Helvetica" font-size="55.0" fill="#000000" transform="matrix(1.00, 0.00, -0.00, -1.00, 418.1, 648.1)">S</text><text xml:space="preserve" font-family="Helvetica-Light,Helvetica" font-size="55.0" fill="#000000" transform="matrix(1.00, 0.00, -0.00, -1.00, 451.7, 648.1)">e</text><text xml:space="preserve" font-family="Helvetica-Light,Helvetica" font-size="55.0" fill="#000000" transform="matrix(1.00, 0.00, -0.00, -1.00, 482.2, 648.1)">t</text><text xml:space="preserve" font-family="Helvetica-Light,Helvetica" font-size="55.0" fill="#000000" transform="matrix(1.00, 0.00, -0.00, -1.00, 497.5, 648.1)"> </text><text xml:space="preserve" font-family="Helvetica-Light,Helvetica" font-size="55.0" fill="#000000" transform="matrix(1.00, 0.00, -0.00, -1.00, 512.8, 648.1)">C</text><text xml:space="preserve" font-family="Helvetica-Light,Helvetica" font-size="55.0" fill="#000000" transform="matrix(1.00, 0.00, -0.00, -1.00, 552.5, 648.1)">o</text><text xml:space="preserve" font-family="Helvetica-Light,Helvetica" font-size="55.0" fill="#000000" transform="matrix(1.00, 0.00, -0.00, -1.00, 583.1, 648.1)">v</text><text xml:space="preserve" font-family="Helvetica-Light,Helvetica" font-size="55.0" fill="#000000" transform="matrix(1.00, 0.00, -0.00, -1.00, 610.6, 648.1)">e</text><text xml:space="preserve" font-family="Helvetica-Light,Helvetica" font-size="55.0" fill="#000000" transform="matrix(1.00, 0.00, -0.00, -1.00, 641.2, 648.1)">r</text><text xml:space="preserve" font-family="Helvetica-Light,Helvetica" font-size="55.0" fill="#000000" transform="matrix(1.00, 0.00, -0.00, -1.00, 659.5, 648.1)"> </text><text xml:space="preserve" font-family="Helvetica-Light,Helvetica" font-size="55.0" fill="#000000" transform="matrix(1.00, 0.00, -0.00, -1.00, 674.8, 648.1)">P</text><text xml:space="preserve" font-family="Helvetica-Light,Helvetica" font-size="55.0" fill="#000000" transform="matrix(1.00, 0.00, -0.00, -1.00, 708.4, 648.1)">r</text><text xml:space="preserve" font-family="Helvetica-Light,Helvetica" font-size="55.0" fill="#000000" transform="matrix(1.00, 0.00, -0.00, -1.00, 725.7, 648.1)">o</text><text xml:space="preserve" font-family="Helvetica-Light,Helvetica" font-size="55.0" fill="#000000" transform="matrix(1.00, 0.00, -0.00, -1.00, 756.3, 648.1)">b</text><text xml:space="preserve" font-family="Helvetica-Light,Helvetica" font-size="55.0" fill="#000000" transform="matrix(1.00, 0.00, -0.00, -1.00, 789.9, 648.1)">l</text><text xml:space="preserve" font-family="Helvetica-Light,Helvetica" font-size="55.0" fill="#000000" transform="matrix(1.00, 0.00, -0.00, -1.00, 802.1, 648.1)">e</text><text xml:space="preserve" font-family="Helvetica-Light,Helvetica" font-size="55.0" fill="#000000" transform="matrix(1.00, 0.00, -0.00, -1.00, 832.7, 648.1)">m</text></g></g></g></svg>