<?xml version="1.0" encoding="UTF-8" standalone="no"?><svg xmlns="http://www.w3.org/2000/svg" xmlns:xlink="http://www.w3.org/1999/xlink" clip-rule="evenodd" stroke-miterlimit="10" viewBox="0 0 1024 768"><desc>SVG generated by Keynote</desc><defs></defs><g transform="matrix(1.00, 0.00, -0.00, -1.00, 0.0, 768.0)"><path d="M 0.0 768.0 L 1024.0 768.0 L 1024.0 0.0 L 0.0 0.0 Z M 0.0 768.0 " fill="#FEFFFF"></path><path d="M 100.5 740.5 L 923.5 740.5 L 923.5 648.5 L 100.5 648.5 Z M 100.8 741.0 " fill="#D5C189"></path><path d="M -0.3 0.5 L 822.7 0.5 L 822.7 92.5 L -0.3 92.5 Z M 0.0 0.0 " fill="none" stroke="#7F404B" stroke-width="5.00" transform="matrix(1.00, 0.00, 0.00, -1.00, 100.8, 741.0)"></path><g><clipPath id="clip0x7ffdceac1ca0"><path d="M 95.6 651.6 L 928.4 651.6 L 928.4 738.0 L 95.6 738.0 Z M 95.6 651.6 "></path></clipPath><g clip-path="url(#clip0x7ffdceac1ca0)"><text xml:space="preserve" font-family="Helvetica-Light,Helvetica" font-size="49.0" fill="#000000" transform="matrix(1.00, 0.00, -0.00, -1.00, 431.7, 676.3)">R</text><text xml:space="preserve" font-family="Helvetica-Light,Helvetica" font-size="49.0" fill="#000000" transform="matrix(1.00, 0.00, -0.00, -1.00, 464.3, 676.3)">e</text><text xml:space="preserve" font-family="Helvetica-Light,Helvetica" font-size="49.0" fill="#000000" transform="matrix(1.00, 0.00, -0.00, -1.00, 491.6, 676.3)">s</text><text xml:space="preserve" font-family="Helvetica-Light,Helvetica" font-size="49.0" fill="#000000" transform="matrix(1.00, 0.00, -0.00, -1.00, 516.1, 676.3)">u</text><text xml:space="preserve" font-family="Helvetica-Light,Helvetica" font-size="49.0" fill="#000000" transform="matrix(1.00, 0.00, -0.00, -1.00, 543.3, 676.3)">l</text><text xml:space="preserve" font-family="Helvetica-Light,Helvetica" font-size="49.0" fill="#000000" transform="matrix(1.00, 0.00, -0.00, -1.00, 554.2, 676.3)">t</text><text xml:space="preserve" font-family="Helvetica-Light,Helvetica" font-size="49.0" fill="#000000" transform="matrix(1.00, 0.00, -0.00, -1.00, 567.8, 676.3)">s</text></g></g><text xml:space="preserve" font-family="Helvetica-Light,Helvetica" font-size="36.0" fill="#000000" transform="matrix(1.00, 0.00, -0.00, -1.00, 105.7, 569.8)">U</text><text xml:space="preserve" font-family="Helvetica-Light,Helvetica" font-size="36.0" fill="#000000" transform="matrix(1.00, 0.00, -0.00, -1.00, 131.7, 569.8)">n</text><text xml:space="preserve" font-family="Helvetica-Light,Helvetica" font-size="36.0" fill="#000000" transform="matrix(1.00, 0.00, -0.00, -1.00, 151.8, 569.8)">i</text><text xml:space="preserve" font-family="Helvetica-Light,Helvetica" font-size="36.0" fill="#000000" transform="matrix(1.00, 0.00, -0.00, -1.00, 159.7, 569.8)">c</text><text xml:space="preserve" font-family="Helvetica-Light,Helvetica" font-size="36.0" fill="#000000" transform="matrix(1.00, 0.00, -0.00, -1.00, 179.8, 569.8)">o</text><text xml:space="preserve" font-family="Helvetica-Light,Helvetica" font-size="36.0" fill="#000000" transform="matrix(1.00, 0.00, -0.00, -1.00, 199.8, 569.8)">s</text><text xml:space="preserve" font-family="Helvetica-Light,Helvetica" font-size="36.0" fill="#000000" transform="matrix(1.00, 0.00, -0.00, -1.00, 217.8, 569.8)">t</text><text xml:space="preserve" font-family="Helvetica-Light,Helvetica" font-size="36.0" fill="#000000" transform="matrix(1.00, 0.00, -0.00, -1.00, 227.8, 569.8)"> </text><text xml:space="preserve" font-family="Helvetica-Light,Helvetica" font-size="36.0" fill="#000000" transform="matrix(1.00, 0.00, -0.00, -1.00, 237.8, 569.8)">p</text><text xml:space="preserve" font-family="Helvetica-Light,Helvetica" font-size="36.0" fill="#000000" transform="matrix(1.00, 0.00, -0.00, -1.00, 259.8, 569.8)">r</text><text xml:space="preserve" font-family="Helvetica-Light,Helvetica" font-size="36.0" fill="#000000" transform="matrix(1.00, 0.00, -0.00, -1.00, 271.1, 569.8)">o</text><text xml:space="preserve" font-family="Helvetica-Light,Helvetica" font-size="36.0" fill="#000000" transform="matrix(1.00, 0.00, -0.00, -1.00, 291.1, 569.8)">b</text><text xml:space="preserve" font-family="Helvetica-Light,Helvetica" font-size="36.0" fill="#000000" transform="matrix(1.00, 0.00, -0.00, -1.00, 313.1, 569.8)">l</text><text xml:space="preserve" font-family="Helvetica-Light,Helvetica" font-size="36.0" fill="#000000" transform="matrix(1.00, 0.00, -0.00, -1.00, 321.1, 569.8)">e</text><text xml:space="preserve" font-family="Helvetica-Light,Helvetica" font-size="36.0" fill="#000000" transform="matrix(1.00, 0.00, -0.00, -1.00, 341.1, 569.8)">m</text><text xml:space="preserve" font-family="Helvetica-Light,Helvetica" font-size="36.0" fill="#000000" transform="matrix(1.00, 0.00, -0.00, -1.00, 371.1, 569.8)">s</text><g><clipPath id="clip0x7ffdceadafe0"><path d="M 104.7 565.2 L 389.1 565.2 L 389.1 569.0 L 104.7 569.0 Z M 104.7 565.2 "></path></clipPath><g clip-path="url(#clip0x7ffdceadafe0)"><path d="M 4.0 41.4 L 287.4 41.4 " fill="none" stroke="#000000" stroke-width="1.80" transform="matrix(1.00, 0.00, 0.00, -1.00, 101.7, 608.6)"></path></g></g><image xlink:href="../../452748C4-C691-4E7A-804A-983C727E559F/assets/94AE5B340A220BFE90FCFFDD79A7611B.png" width="653.00" height="377.00" transform="matrix(1.29, 0.00, -0.00, -1.29, 90.9, 545.1)"></image></g></svg>